#!OML:ASF G:\acrobat\cartwheel_test\acrobat_wednesday\Session 1\acrobatwednesday.ASF
:FULLY-SPECIFIED
:DEGREES
115
root 10.0496 14.5962 3.3895 -226.492 88.8546 -222.783
lowerback 0.251628 -0.485453 0.0284777
upperback 1.799 -0.640466 0.379387
thorax 1.70488 -0.317355 0.364742
lowerneck -22.2361 -10.5116 -12.5646
upperneck 25.9341 -13.5791 10.3597
head 14.2458 -5.70846 3.57548
rclavicle -2.57838e-015 5.56597e-015
rhumerus 0 0 0
rradius 0
rwrist 0
rhand 0 0
rfingers 0
rthumb 0 0
lclavicle -2.57838e-015 5.56597e-015
lhumerus 0 0 0
lradius 0
lwrist 0
lhand 0 0
lfingers 0
lthumb 0 0
rfemur -18.1135 -10.78 10.6513
rtibia 56.0164
rfoot 10.6284 13.1144
rtoes -19.3665
lfemur -20.7179 8.7937 -10.1532
ltibia 58.35
lfoot 21.0959 6.06094
ltoes -16.8245
116
root 10.0475 14.597 3.39031 -227.706 88.7724 -223.931
lowerback 0.331275 -0.521503 -0.0585972
upperback 1.77461 -0.687896 0.384521
thorax 1.63656 -0.342383 0.419091
lowerneck -22.2757 -10.4339 -12.5256
upperneck 26.0658 -13.465 10.297
head 14.2851 -5.65978 3.57124
rclavicle 1.12112e-015 3.97569e-015
rhumerus 0 0 0
rradius 0
rwrist 0
rhand 0 0
rfingers 0
rthumb 0 0
lclavicle 1.12112e-015 3.97569e-015
lhumerus 0 0 0
lradius 0
lwrist 0
lhand 0 0
lfingers 0
lthumb 0 0
rfemur -18.0271 -10.8157 10.5461
rtibia 56.0004
rfoot 10.6917 13.0449
rtoes -19.7479
lfemur -20.6462 8.75793 -10.2274
ltibia 58.3311
lfoot 21.1437 6.25733
ltoes -17.3762
117
root 10.0451 14.5984 3.39298 -228.135 88.7448 -224.33
lowerback 0.381715 -0.52521 -0.116914
upperback 1.77144 -0.692397 0.38988
thorax 1.60581 -0.345455 0.45771
lowerneck -22.3812 -10.3867 -12.4505
upperneck 26.1845 -13.403 10.2401
head 14.3376 -5.62683 3.54941
rclavicle 1.61415e-015 5.36719e-015
rhumerus 0 0 0
rradius 0
rwrist 0
rhand 0 0
rfingers 0
rthumb 0 0
lclavicle 1.61415e-015 5.36719e-015
lhumerus 0 0 0
lradius 0
lwrist 0
lhand 0 0
lfingers 0
lthumb 0 0
rfemur -18.1342 -10.8637 10.5242
rtibia 56.2238
rfoot 10.7683 13.0433
rtoes -19.6167
lfemur -20.6056 8.7561 -10.2367
ltibia 58.3002
lfoot 21.1004 6.43149
ltoes -18.2681
118
root 10.0419 14.5993 3.39498 -226.842 88.7229 -223.015
lowerback 0.426515 -0.520134 -0.110091
upperback 1.75821 -0.685582 0.387342
thorax 1.56692 -0.341886 0.45187
lowerneck -22.4186 -10.3466 -12.382
upperneck 26.2616 -13.3518 10.1802
head 14.3598 -5.60291 3.52615
rclavicle -3.4632e-015 5.36719e-015
rhumerus 0 0 0
rradius 0
rwrist 0
rhand 0 0
rfingers 0
rthumb 0 0
lclavicle -3.4632e-015 5.36719e-015
lhumerus 0 0 0
lradius 0
lwrist 0
lhand 0 0
lfingers 0
lthumb 0 0
rfemur -18.1755 -10.9275 10.5351
rtibia 56.3438
rfoot 10.8388 13.0364
rtoes -19.7935
lfemur -20.5896 8.724 -10.2246
ltibia 58.2841
lfoot 21.033 6.31381
ltoes -17.8965
119
root 10.0401 14.5993 3.39642 -224.507 88.6993 -220.653
lowerback 0.441245 -0.521482 -0.0664261
upperback 1.75228 -0.687524 0.383438
thorax 1.55202 -0.342189 0.423571
lowerneck -22.4553 -10.2723 -12.2305
upperneck 26.316 -13.2534 10.0418
head 14.3505 -5.56188 3.46743
rclavicle 2.6207e-015 -2.78299e-015
rhumerus 0 0 0
rradius 0
rwrist 0
rhand 0 0
rfingers 0
rthumb 0 0
lclavicle 2.6207e-015 -2.78299e-015
lhumerus 0 0 0
lradius 0
lwrist 0
lhand 0 0
lfingers 0
lthumb 0 0
rfemur -18.1577 -10.934 10.5736
rtibia 56.4116
rfoot 10.9558 13.0348
rtoes -19.983
lfemur -20.5697 8.68671 -10.1917
ltibia 58.2687
lfoot 20.9635 6.35423
ltoes -18.0181
120
root 10.0392 14.5998 3.3985 -225.014 88.6994 -221.134
lowerback 0.450549 -0.499476 -0.0716005
upperback 1.74959 -0.658014 0.371437
thorax 1.54371 -0.327425 0.41456
lowerneck -22.4957 -10.2015 -12.0665
upperneck 26.3698 -13.1649 9.90467
head 14.3425 -5.52351 3.40483
rclavicle 1.66366e-015 5.36719e-015
rhumerus 0 0 0
rradius 0
rwrist 0
rhand 0 0
rfingers 0
rthumb 0 0
lclavicle 1.66366e-015 5.36719e-015
lhumerus 0 0 0
lradius 0
lwrist 0
lhand 0 0
lfingers 0
lthumb 0 0
rfemur -18.1408 -10.8451 10.5815
rtibia 56.4102
rfoot 10.8909 13.1094
rtoes -19.4415
lfemur -20.5236 8.71508 -10.1813
ltibia 58.2268
lfoot 20.9643 6.35303
ltoes -17.9081
121
root 10.0378 14.6005 3.39947 -226.099 88.6683 -222.199
lowerback 0.462071 -0.48225 -0.0941002
upperback 1.71488 -0.634999 0.346603
thorax 1.50143 -0.316168 0.402226
lowerneck -22.435 -10.154 -11.9823
upperneck 26.426 -13.1049 9.80821
head 14.3296 -5.50301 3.36859
rclavicle 1.79372e-015 -1.19271e-015
rhumerus 0 0 0
rradius 0
rwrist 0
rhand 0 0
rfingers 0
rthumb 0 0
lclavicle 1.79372e-015 -1.19271e-015
lhumerus 0 0 0
lradius 0
lwrist 0
lhand 0 0
lfingers 0
lthumb 0 0
rfemur -18.0711 -10.8487 10.522
rtibia 56.301
rfoot 10.7582 13.1561
rtoes -19.0027
lfemur -20.4949 8.70219 -10.2255
ltibia 58.2124
lfoot 21.071 6.23758
ltoes -17.0802
122
root 10.0357 14.6004 3.40101 -226.487 88.6435 -222.559
lowerback 0.489796 -0.497627 -0.12275
upperback 1.67711 -0.655729 0.351531
thorax 1.44769 -0.327022 0.423595
lowerneck -22.3531 -10.088 -11.976
upperneck 26.4199 -12.9999 9.75466
head 14.2897 -5.46806 3.37148
rclavicle -4.03937e-015 -1.39149e-015
rhumerus 0 0 0
rradius 0
rwrist 0
rhand 0 0
rfingers 0
rthumb 0 0
lclavicle -4.03937e-015 -1.39149e-015
lhumerus 0 0 0
lradius 0
lwrist 0
lhand 0 0
lfingers 0
lthumb 0 0
rfemur -18.0158 -10.909 10.4836
rtibia 56.2606
rfoot 10.8067 13.1224
rtoes -19.2625
lfemur -20.4584 8.70171 -10.2487
ltibia 58.1927
lfoot 21.0641 6.36972
ltoes -17.5314
123
root 10.0334 14.6002 3.40401 -226.068 88.6586 -222.104
lowerback 0.542933 -0.51539 -0.137247
upperback 1.65069 -0.679736 0.382831
thorax 1.39156 -0.339388 0.464227
lowerneck -22.3028 -10.0216 -11.9804
upperneck 26.3719 -12.8897 9.71809
head 14.2402 -5.42974 3.38207
rclavicle 3.33896e-015 -1.98785e-015
rhumerus 0 0 0
rradius 0
rwrist 0
rhand 0 0
rfingers 0
rthumb 0 0
lclavicle 3.33896e-015 -1.98785e-015
lhumerus 0 0 0
lradius 0
lwrist 0
lhand 0 0
lfingers 0
lthumb 0 0
rfemur -17.9967 -10.9122 10.519
rtibia 56.284
rfoot 10.9087 13.0692
rtoes -19.763
lfemur -20.4265 8.7434 -10.2072
ltibia 58.1754
lfoot 20.9126 6.57178
ltoes -18.5107
124
root 10.0325 14.6001 3.40718 -223.505 88.6377 -219.548
lowerback 0.512354 -0.526227 -0.119514
upperback 1.63958 -0.694569 0.396747
thorax 1.39742 -0.346734 0.468192
lowerneck -22.3314 -9.96671 -11.9494
upperneck 26.385 -12.8072 9.68508
head 14.2349 -5.39478 3.38125
rclavicle -1.40081e-015 8.54774e-015
rhumerus 0 0 0
rradius 0
rwrist 0
rhand 0 0
rfingers 0
rthumb 0 0
lclavicle -1.40081e-015 8.54774e-015
lhumerus 0 0 0
lradius 0
lwrist 0
lhand 0 0
lfingers 0
lthumb 0 0
rfemur -17.9784 -10.9458 10.5657
rtibia 56.2579
rfoot 10.8561 13.1133
rtoes -19.7111
lfemur -20.4635 8.72793 -10.1602
ltibia 58.1833
lfoot 20.8007 6.57437
ltoes -18.5373
125
root 10.0317 14.5999 3.40974 -222.506 88.613 -218.582
lowerback 0.4158 -0.518029 -0.100899
upperback 1.66194 -0.683758 0.385843
thorax 1.47406 -0.341123 0.445616
lowerneck -22.4664 -9.92745 -11.9203
upperneck 26.4556 -12.7508 9.68276
head 14.2833 -5.36203 3.38557
rclavicle 1.97387e-015 9.93923e-016
rhumerus 0 0 0
rradius 0
rwrist 0
rhand 0 0
rfingers 0
rthumb 0 0
lclavicle 1.97387e-015 9.93923e-016
lhumerus 0 0 0
lradius 0
lwrist 0
lhand 0 0
lfingers 0
lthumb 0 0
rfemur -17.9929 -10.964 10.5745
rtibia 56.226
rfoot 10.6923 13.218
rtoes -20.2471
lfemur -20.5117 8.72736 -10.1555
ltibia 58.1635
lfoot 20.7538 6.50563
ltoes -18.3396
126
root 10.029 14.6006 3.41106 -221.467 88.6185 -217.552
lowerback 0.370364 -0.506696 -0.0212839
upperback 1.68105 -0.66872 0.355826
thorax 1.51772 -0.332325 0.369887
lowerneck -22.5658 -9.89945 -11.8497
upperneck 26.5229 -12.7202 9.65013
head 14.3203 -5.34135 3.36619
rclavicle -7.0258e-015 7.95139e-016
rhumerus 0 0 0
rradius 0
rwrist 0
rhand 0 0
rfingers 0
rthumb 0 0
lclavicle -7.0258e-015 7.95139e-016
lhumerus 0 0 0
lradius 0
lwrist 0
lhand 0 0
lfingers 0
lthumb 0 0
rfemur -18.0112 -10.9625 10.609
rtibia 56.2293
rfoot 10.6567 13.2323
rtoes -21.7222
lfemur -20.5392 8.74079 -10.1279
ltibia 58.1798
lfoot 20.7095 6.59174
ltoes -18.8756
127
root 10.0261 14.6011 3.41207 -220.086 88.5834 -216.161
lowerback 0.371251 -0.502247 0.0355045
upperback 1.67815 -0.662685 0.316979
thorax 1.51308 -0.328272 0.298389
lowerneck -22.638 -9.85857 -11.756
upperneck 26.5805 -12.6757 9.59955
head 14.3419 -5.31586 3.33948
rclavicle 1.89311e-015 -7.95139e-016
rhumerus 0 0 0
rradius 0
rwrist 0
rhand 0 0
rfingers 0
rthumb 0 0
lclavicle 1.89311e-015 -7.95139e-016
lhumerus 0 0 0
lradius 0
lwrist 0
lhand 0 0
lfingers 0
lthumb 0 0
rfemur -18.0106 -11.0169 10.62
rtibia 56.2622
rfoot 10.7907 13.1481
rtoes -22.3698
lfemur -20.5568 8.70084 -10.122
ltibia 58.212
lfoot 20.6621 6.69466
ltoes -19.4505
128
root 10.0241 14.6006 3.41395 -220.157 88.5423 -216.217
lowerback 0.400364 -0.494306 -0.0125411
upperback 1.67004 -0.651839 0.3208
thorax 1.48897 -0.323531 0.329632
lowerneck -22.7518 -9.81348 -11.7593
upperneck 26.6364 -12.6039 9.60988
head 14.3816 -5.27931 3.35803
rclavicle 3.13552e-015 -3.77691e-015
rhumerus 0 0 0
rradius 0
rwrist 0
rhand 0 0
rfingers 0
rthumb 0 0
lclavicle 3.13552e-015 -3.77691e-015
lhumerus 0 0 0
lradius 0
lwrist 0
lhand 0 0
lfingers 0
lthumb 0 0
rfemur -17.9957 -11.0238 10.5891
rtibia 56.2607
rfoot 10.7377 13.1999
rtoes -21.595
lfemur -20.553 8.68281 -10.1412
ltibia 58.2019
lfoot 20.6361 6.67767
ltoes -19.5594
129
root 10.023 14.601 3.41741 -219.871 88.5229 -215.895
lowerback 0.42813 -0.490704 -0.0660717
upperback 1.67122 -0.646898 0.343638
thorax 1.47544 -0.321895 0.383295
lowerneck -22.7712 -9.78493 -11.8129
upperneck 26.6182 -12.5503 9.64768
head 14.3783 -5.25681 3.39307
rclavicle -2.28602e-015 4.17448e-015
rhumerus 0 0 0
rradius 0
rwrist 0
rhand 0 0
rfingers 0
rthumb 0 0
lclavicle -2.28602e-015 4.17448e-015
lhumerus 0 0 0
lradius 0
lwrist 0
lhand 0 0
lfingers 0
lthumb 0 0
rfemur -17.8812 -10.9608 10.5856
rtibia 56.1066
rfoot 10.536 13.3546
rtoes -20.6614
lfemur -20.5238 8.69755 -10.1187
ltibia 58.226
lfoot 20.668 6.78042
ltoes -19.9845
130
root 10.0215 14.6027 3.42074 -220.07 88.4582 -216.079
lowerback 0.399316 -0.486195 -0.119012
upperback 1.66815 -0.640517 0.31596
thorax 1.48868 -0.319307 0.384423
lowerneck -22.6673 -9.76797 -11.8034
upperneck 26.5478 -12.5361 9.6549
head 14.3239 -5.25365 3.39915
rclavicle 2.46307e-015 -2.38542e-015
rhumerus 0 0 0
rradius 0
rwrist 0
rhand 0 0
rfingers 0
rthumb 0 0
lclavicle 2.46307e-015 -2.38542e-015
lhumerus 0 0 0
lradius 0
lwrist 0
lhand 0 0
lfingers 0
lthumb 0 0
rfemur -17.7143 -10.9334 10.5408
rtibia 55.8486
rfoot 10.4315 13.4205
rtoes -20.4481
lfemur -20.5308 8.69955 -10.151
ltibia 58.236
lfoot 20.6639 6.85547
ltoes -20.2452
131
root 10.019 14.6051 3.42215 -220.427 88.3568 -216.424
lowerback 0.379972 -0.48254 -0.143359
upperback 1.66819 -0.634841 0.245206
thorax 1.49898 -0.31636 0.325504
lowerneck -22.6037 -9.75705 -11.711
upperneck 26.5105 -12.5421 9.60521
head 14.2831 -5.25619 3.36371
rclavicle 2.40405e-015 -1.39149e-015
rhumerus 0 0 0
rradius 0
rwrist 0
rhand 0 0
rfingers 0
rthumb 0 0
lclavicle 2.40405e-015 -1.39149e-015
lhumerus 0 0 0
lradius 0
lwrist 0
lhand 0 0
lfingers 0
lthumb 0 0
rfemur -17.6696 -11.0077 10.4484
rtibia 55.83
rfoot 10.4579 13.4152
rtoes -20.1817
lfemur -20.545 8.68471 -10.2313
ltibia 58.2054
lfoot 20.5317 6.89302
ltoes -20.5271
132
root 10.0179 14.6064 3.42314 -220.104 88.294 -216.049
lowerback 0.377239 -0.479345 -0.118309
upperback 1.69599 -0.629866 0.196959
thorax 1.52816 -0.313101 0.26196
lowerneck -22.6034 -9.76789 -11.6278
upperneck 26.4905 -12.55 9.48895
head 14.258 -5.26779 3.30036
rclavicle 4.87022e-015 -3.77691e-015
rhumerus 0 0 0
rradius 0
rwrist 0
rhand 0 0
rfingers 0
rthumb 0 0
lclavicle 4.87022e-015 -3.77691e-015
lhumerus 0 0 0
lradius 0
lwrist 0
lhand 0 0
lfingers 0
lthumb 0 0
rfemur -17.7173 -11.118 10.395
rtibia 56.04
rfoot 10.5709 13.376
rtoes -19.5933
lfemur -20.4863 8.62655 -10.2557
ltibia 58.1774
lfoot 20.4259 7.1237
ltoes -21.5143
